<svg width="601" height="101" viewBox="0 0 601 101" fill="none" xmlns="http://www.w3.org/2000/svg">
<path d="M80.6174 89.8324C80.6469 89.8698 80.7006 89.8759 80.7374 89.8457C86.6653 84.9951 91.4189 78.8236 94.631 71.8073C97.8553 64.7648 99.4394 57.0612 99.2603 49.2956C99.0812 41.5301 97.1438 33.9119 93.5987 27.0336C90.0668 20.1811 85.034 14.247 78.8892 9.68936C78.8511 9.66106 78.7976 9.66965 78.7698 9.70851L77.1194 12.0195C77.0916 12.0584 77.1002 12.1128 77.1383 12.1411C82.9124 16.4249 87.6417 22.0018 90.9609 28.4416C94.2934 34.9072 96.1147 42.0682 96.2829 49.3678C96.4513 56.6675 94.9622 63.909 91.9314 70.5289C88.9127 77.1226 84.4456 82.9227 78.8754 87.4818C78.8386 87.5118 78.8327 87.5666 78.8622 87.6041L80.6174 89.8324Z" fill="#F5F5F5"/>
<path d="M74.8401 7.08497C74.864 7.04361 74.8505 6.99027 74.8099 6.96594C68.6901 3.30478 61.8688 1.02216 54.8064 0.272565C47.7154 -0.480046 40.5477 0.330377 33.7912 2.64868C27.0345 4.96697 20.8475 8.73874 15.6511 13.7072C10.4755 18.656 6.40352 24.6762 3.71001 31.3614C3.6921 31.4058 3.71309 31.4566 3.75681 31.4747L6.356 32.5525C6.39981 32.5707 6.44958 32.5493 6.46758 32.5048C8.99946 26.2228 12.8264 20.5654 17.6902 15.9148C22.5748 11.2444 28.3907 7.69895 34.7418 5.51975C41.0931 3.34055 47.8307 2.57876 54.4961 3.2862C61.1333 3.99064 67.5437 6.13539 73.2951 9.57533C73.3357 9.59966 73.3882 9.58597 73.4121 9.54463L74.8401 7.08497Z" fill="#F5F5F5"/>
<path d="M1.74544 37.5798C1.69981 37.5674 1.65301 37.5952 1.64097 37.6415C0.52102 41.9625 -0.0303597 46.4156 0.00128877 50.8837C0.00163292 50.9317 0.0402699 50.9703 0.0874845 50.9699L2.89463 50.9432C2.94183 50.9428 2.97971 50.9035 2.97938 50.8555C2.9501 46.6589 3.46797 42.4767 4.51941 38.4181C4.53144 38.3717 4.50427 38.3241 4.45863 38.3117L1.74544 37.5798Z" fill="#F5F5F5"/>
<path d="M0.525671 57.2255C0.478907 57.232 0.446094 57.2758 0.452447 57.3233C1.35503 64.0768 3.59221 70.5745 7.02953 76.4244C10.4813 82.2991 15.0716 87.3981 20.5211 91.4114C25.9706 95.4248 32.1656 98.2685 38.7299 99.7702C45.2663 101.265 52.0328 101.399 58.6218 100.162C58.6682 100.153 58.6989 100.108 58.6903 100.061L58.1774 97.253C58.1688 97.2059 58.124 97.1746 58.0776 97.1834C51.8857 98.3446 45.5268 98.2191 39.3843 96.814C33.214 95.4024 27.3906 92.7293 22.2681 88.9567C17.1455 85.1842 12.8307 80.3913 9.5859 74.8689C6.35579 69.3715 4.2531 63.2656 3.4042 56.9192C3.39783 56.8715 3.3548 56.8381 3.308 56.8446L0.525671 57.2255Z" fill="#F5F5F5"/>
<path d="M63.6064 98.8627C63.6197 98.9088 63.6673 98.9352 63.7126 98.9216C68.0454 97.6163 72.1832 95.7153 76.0109 93.2713C76.0509 93.2457 76.0629 93.1921 76.0378 93.1514L74.542 90.7351C74.5169 90.6944 74.4641 90.6823 74.4241 90.7077C70.8287 93.0029 66.9424 94.7884 62.8729 96.0148C62.8276 96.0284 62.8017 96.0768 62.815 96.1228L63.6064 98.8627Z" fill="#F5F5F5"/>
<path d="M85.2869 75.6347C71.634 95.6574 44.6065 100.632 24.9196 86.7467C5.23258 72.8609 0.340893 45.3727 13.9938 25.3499C27.6467 5.32716 54.6741 0.352132 74.3611 14.2379C94.0482 28.1236 98.9399 55.6119 85.2869 75.6347ZM20.4502 29.9038C9.2701 46.3 13.2757 68.8095 29.397 80.1802C45.5183 91.551 67.6505 87.477 78.8306 71.0808C90.0106 54.6846 86.005 32.1751 69.8838 20.8044C53.7625 9.43358 31.6303 13.5075 20.4502 29.9038Z" fill="#F5F5F5"/>
<path d="M142.255 22.3724H149.942V80.0465H142.255V22.3724ZM172.548 22.3724H182.636L213.863 69.7824H214.023V22.3724H221.71V80.0465H211.942L180.395 32.6364H180.234V80.0465H172.548V22.3724ZM256.13 29.7039H237.875V22.3724H282.072V29.7039H263.817V80.0465H256.13V29.7039ZM304.91 22.3724V57.7263C304.91 59.5184 305.15 61.392 305.63 63.347C306.111 65.2478 306.911 67.0128 308.032 68.642C309.153 70.2712 310.621 71.6017 312.436 72.6335C314.251 73.6654 316.493 74.1813 319.162 74.1813C321.831 74.1813 324.073 73.6654 325.888 72.6335C327.703 71.6017 329.17 70.2712 330.291 68.642C331.412 67.0128 332.213 65.2478 332.693 63.347C333.174 61.392 333.414 59.5184 333.414 57.7263V22.3724H341.101V58.9482C341.101 62.3152 340.54 65.3836 339.419 68.1532C338.298 70.8686 336.75 73.2309 334.775 75.2403C332.8 77.2496 330.478 78.7974 327.809 79.8835C325.14 80.9697 322.258 81.5127 319.162 81.5127C316.066 81.5127 313.183 80.9697 310.515 79.8835C307.846 78.7974 305.524 77.2496 303.549 75.2403C301.574 73.2309 300.026 70.8686 298.905 68.1532C297.784 65.3836 297.223 62.3152 297.223 58.9482V22.3724H304.91ZM362.646 22.3724H370.332V80.0465H362.646V22.3724ZM404.788 29.7039H386.533V22.3724H430.73V29.7039H412.475V80.0465H404.788V29.7039ZM446.922 22.3724H454.609V80.0465H446.922V22.3724ZM503.235 81.5127C498.911 81.5127 494.934 80.7524 491.304 79.2318C487.675 77.6569 484.552 75.5118 481.936 72.7965C479.374 70.0811 477.346 66.877 475.851 63.1841C474.41 59.4912 473.689 55.4997 473.689 51.2094C473.689 46.9192 474.41 42.9276 475.851 39.2347C477.346 35.5419 479.374 32.3377 481.936 29.6224C484.552 26.907 487.675 24.7891 491.304 23.2685C494.934 21.6936 498.911 20.9061 503.235 20.9061C507.558 20.9061 511.535 21.6936 515.165 23.2685C518.794 24.7891 521.891 26.907 524.453 29.6224C527.068 32.3377 529.097 35.5419 530.538 39.2347C532.032 42.9276 532.78 46.9192 532.78 51.2094C532.78 55.4997 532.032 59.4912 530.538 63.1841C529.097 66.877 527.068 70.0811 524.453 72.7965C521.891 75.5118 518.794 77.6569 515.165 79.2318C511.535 80.7524 507.558 81.5127 503.235 81.5127ZM503.235 74.1813C506.491 74.1813 509.426 73.5839 512.042 72.3892C514.658 71.1401 516.9 69.4837 518.768 67.4201C520.636 65.3564 522.077 62.9397 523.092 60.1701C524.106 57.3461 524.613 54.3592 524.613 51.2094C524.613 48.0596 524.106 45.0999 523.092 42.3302C522.077 39.5063 520.636 37.0624 518.768 34.9988C516.9 32.9351 514.658 31.3059 512.042 30.1111C509.426 28.8621 506.491 28.2376 503.235 28.2376C499.978 28.2376 497.043 28.8621 494.427 30.1111C491.811 31.3059 489.57 32.9351 487.701 34.9988C485.833 37.0624 484.392 39.5063 483.378 42.3302C482.363 45.0999 481.856 48.0596 481.856 51.2094C481.856 54.3592 482.363 57.3461 483.378 60.1701C484.392 62.9397 485.833 65.3564 487.701 67.4201C489.57 69.4837 491.811 71.1401 494.427 72.3892C497.043 73.5839 499.978 74.1813 503.235 74.1813ZM551.838 22.3724H561.927L593.154 69.7824H593.314V22.3724H601V80.0465H591.232L559.685 32.6364H559.525V80.0465H551.838V22.3724Z" fill="#F5F5F5"/>
</svg>
